<mxfile host="Electron" modified="2025-07-05T12:38:27.833Z" agent="Mozilla/5.0 (Windows NT 10.0; Win64; x64) AppleWebKit/537.36 (KHTML, like Gecko) draw.io/22.1.21 Chrome/120.0.6099.109 Electron/28.1.0 Safari/537.36" etag="u3lb87134eYeZw654F-u" version="22.1.21" type="device" pages="3">
  <diagram id="cV-Tk9_wPNWi82MupT_c" name="Methods of retrieval">
    <mxGraphModel dx="1562" dy="1037" grid="1" gridSize="10" guides="1" tooltips="1" connect="1" arrows="1" fold="1" page="1" pageScale="1" pageWidth="850" pageHeight="1100" math="0" shadow="0">
      <root>
        <mxCell id="0" />
        <mxCell id="1" parent="0" />
        <mxCell id="ZC8OoPljzns8-YZzOIFs-5" value="" style="edgeStyle=orthogonalEdgeStyle;rounded=0;orthogonalLoop=1;jettySize=auto;html=1;" parent="1" source="ZC8OoPljzns8-YZzOIFs-1" target="ZC8OoPljzns8-YZzOIFs-4" edge="1">
          <mxGeometry relative="1" as="geometry" />
        </mxCell>
        <mxCell id="ZC8OoPljzns8-YZzOIFs-1" value="iTop cron job" style="rounded=0;whiteSpace=wrap;html=1;fontStyle=1;fillColor=#d5e8d4;strokeColor=#82b366;" parent="1" vertex="1">
          <mxGeometry x="360" y="20" width="120" height="60" as="geometry" />
        </mxCell>
        <mxCell id="ZC8OoPljzns8-YZzOIFs-19" value="No" style="edgeStyle=orthogonalEdgeStyle;rounded=0;orthogonalLoop=1;jettySize=auto;html=1;exitX=0.5;exitY=1;exitDx=0;exitDy=0;entryX=0.5;entryY=1;entryDx=0;entryDy=0;" parent="1" source="ZC8OoPljzns8-YZzOIFs-4" target="ZC8OoPljzns8-YZzOIFs-6" edge="1">
          <mxGeometry relative="1" as="geometry" />
        </mxCell>
        <mxCell id="ZC8OoPljzns8-YZzOIFs-21" value="Yes" style="edgeStyle=orthogonalEdgeStyle;rounded=0;orthogonalLoop=1;jettySize=auto;html=1;" parent="1" source="ZC8OoPljzns8-YZzOIFs-4" target="ZC8OoPljzns8-YZzOIFs-20" edge="1">
          <mxGeometry relative="1" as="geometry" />
        </mxCell>
        <mxCell id="ZC8OoPljzns8-YZzOIFs-4" value="Retrieved messages" style="rhombus;whiteSpace=wrap;html=1;" parent="1" vertex="1">
          <mxGeometry x="630" y="135" width="150" height="150" as="geometry" />
        </mxCell>
        <mxCell id="ZC8OoPljzns8-YZzOIFs-8" style="edgeStyle=orthogonalEdgeStyle;rounded=0;orthogonalLoop=1;jettySize=auto;html=1;exitX=0.5;exitY=0;exitDx=0;exitDy=0;entryX=0;entryY=0.5;entryDx=0;entryDy=0;" parent="1" source="ZC8OoPljzns8-YZzOIFs-6" target="ZC8OoPljzns8-YZzOIFs-1" edge="1">
          <mxGeometry relative="1" as="geometry" />
        </mxCell>
        <mxCell id="ZC8OoPljzns8-YZzOIFs-6" value="Wait for next run&lt;br&gt;of cron job" style="whiteSpace=wrap;html=1;" parent="1" vertex="1">
          <mxGeometry x="95" y="180" width="120" height="60" as="geometry" />
        </mxCell>
        <mxCell id="ZC8OoPljzns8-YZzOIFs-16" value="" style="edgeStyle=orthogonalEdgeStyle;rounded=0;orthogonalLoop=1;jettySize=auto;html=1;" parent="1" source="ZC8OoPljzns8-YZzOIFs-14" target="ZC8OoPljzns8-YZzOIFs-15" edge="1">
          <mxGeometry relative="1" as="geometry" />
        </mxCell>
        <mxCell id="ZC8OoPljzns8-YZzOIFs-14" value="iTop back office page&lt;br&gt;is rendered" style="rounded=0;whiteSpace=wrap;html=1;fillColor=#d5e8d4;strokeColor=#82b366;" parent="1" vertex="1">
          <mxGeometry x="110" y="380" width="120" height="60" as="geometry" />
        </mxCell>
        <mxCell id="ZC8OoPljzns8-YZzOIFs-18" value="No" style="edgeStyle=orthogonalEdgeStyle;rounded=0;orthogonalLoop=1;jettySize=auto;html=1;" parent="1" source="ZC8OoPljzns8-YZzOIFs-15" target="ZC8OoPljzns8-YZzOIFs-17" edge="1">
          <mxGeometry relative="1" as="geometry" />
        </mxCell>
        <mxCell id="ZC8OoPljzns8-YZzOIFs-25" value="" style="edgeStyle=orthogonalEdgeStyle;rounded=0;orthogonalLoop=1;jettySize=auto;html=1;" parent="1" source="ZC8OoPljzns8-YZzOIFs-15" target="ZC8OoPljzns8-YZzOIFs-24" edge="1">
          <mxGeometry relative="1" as="geometry" />
        </mxCell>
        <mxCell id="ZC8OoPljzns8-YZzOIFs-15" value="Retrieval through&amp;nbsp;&lt;br&gt;cron seems failed?" style="rhombus;whiteSpace=wrap;html=1;rounded=0;" parent="1" vertex="1">
          <mxGeometry x="95" y="475" width="150" height="150" as="geometry" />
        </mxCell>
        <mxCell id="ZC8OoPljzns8-YZzOIFs-17" value="End" style="whiteSpace=wrap;html=1;rounded=0;" parent="1" vertex="1">
          <mxGeometry x="110" y="700" width="120" height="60" as="geometry" />
        </mxCell>
        <mxCell id="ZC8OoPljzns8-YZzOIFs-23" style="edgeStyle=orthogonalEdgeStyle;rounded=0;orthogonalLoop=1;jettySize=auto;html=1;exitX=0;exitY=0.5;exitDx=0;exitDy=0;entryX=1;entryY=0.5;entryDx=0;entryDy=0;" parent="1" source="ZC8OoPljzns8-YZzOIFs-20" target="ZC8OoPljzns8-YZzOIFs-6" edge="1">
          <mxGeometry relative="1" as="geometry">
            <mxPoint x="280" y="210" as="targetPoint" />
          </mxGeometry>
        </mxCell>
        <mxCell id="ZC8OoPljzns8-YZzOIFs-20" value="Process on server&lt;br&gt;( see details )" style="whiteSpace=wrap;html=1;" parent="1" vertex="1">
          <mxGeometry x="360" y="180" width="120" height="60" as="geometry" />
        </mxCell>
        <mxCell id="ZC8OoPljzns8-YZzOIFs-27" value="" style="edgeStyle=orthogonalEdgeStyle;rounded=0;orthogonalLoop=1;jettySize=auto;html=1;" parent="1" source="ZC8OoPljzns8-YZzOIFs-24" target="ZC8OoPljzns8-YZzOIFs-26" edge="1">
          <mxGeometry relative="1" as="geometry" />
        </mxCell>
        <mxCell id="ZC8OoPljzns8-YZzOIFs-24" value="Call news source endpoint (JSONP)" style="whiteSpace=wrap;html=1;rounded=0;" parent="1" vertex="1">
          <mxGeometry x="300" y="520" width="120" height="60" as="geometry" />
        </mxCell>
        <mxCell id="ZC8OoPljzns8-YZzOIFs-29" value="" style="edgeStyle=orthogonalEdgeStyle;rounded=0;orthogonalLoop=1;jettySize=auto;html=1;" parent="1" source="ZC8OoPljzns8-YZzOIFs-26" target="ZC8OoPljzns8-YZzOIFs-28" edge="1">
          <mxGeometry relative="1" as="geometry" />
        </mxCell>
        <mxCell id="ZC8OoPljzns8-YZzOIFs-26" value="Send JSONP response to iTop" style="whiteSpace=wrap;html=1;rounded=0;" parent="1" vertex="1">
          <mxGeometry x="460" y="520" width="170" height="60" as="geometry" />
        </mxCell>
        <mxCell id="ZC8OoPljzns8-YZzOIFs-30" style="edgeStyle=orthogonalEdgeStyle;rounded=0;orthogonalLoop=1;jettySize=auto;html=1;exitX=0.5;exitY=1;exitDx=0;exitDy=0;entryX=1;entryY=0.65;entryDx=0;entryDy=0;entryPerimeter=0;" parent="1" source="ZC8OoPljzns8-YZzOIFs-28" target="ZC8OoPljzns8-YZzOIFs-17" edge="1">
          <mxGeometry relative="1" as="geometry" />
        </mxCell>
        <mxCell id="ZC8OoPljzns8-YZzOIFs-28" value="Process on server&lt;br&gt;( see details )" style="whiteSpace=wrap;html=1;" parent="1" vertex="1">
          <mxGeometry x="660" y="520" width="120" height="60" as="geometry" />
        </mxCell>
      </root>
    </mxGraphModel>
  </diagram>
  <diagram id="C5RBs43oDa-KdzZeNtuy" name="Cron job">
    <mxGraphModel dx="1562" dy="1037" grid="1" gridSize="10" guides="1" tooltips="1" connect="1" arrows="1" fold="1" page="1" pageScale="1" pageWidth="827" pageHeight="1169" math="0" shadow="0">
      <root>
        <mxCell id="WIyWlLk6GJQsqaUBKTNV-0" />
        <mxCell id="WIyWlLk6GJQsqaUBKTNV-1" parent="WIyWlLk6GJQsqaUBKTNV-0" />
        <mxCell id="OZhyUquxvkUG8-gDUHAd-23" value="" style="edgeStyle=orthogonalEdgeStyle;rounded=0;orthogonalLoop=1;jettySize=auto;html=1;" parent="WIyWlLk6GJQsqaUBKTNV-1" source="WIyWlLk6GJQsqaUBKTNV-3" target="WIyWlLk6GJQsqaUBKTNV-7" edge="1">
          <mxGeometry relative="1" as="geometry" />
        </mxCell>
        <mxCell id="WIyWlLk6GJQsqaUBKTNV-3" value="&lt;div&gt;iTop&lt;/div&gt;&lt;div&gt;&lt;b&gt;Background task&lt;/b&gt;&lt;br&gt;&lt;/div&gt;" style="rounded=1;whiteSpace=wrap;html=1;fontSize=12;glass=0;strokeWidth=1;shadow=0;" parent="WIyWlLk6GJQsqaUBKTNV-1" vertex="1">
          <mxGeometry x="20" y="20" width="120" height="40" as="geometry" />
        </mxCell>
        <mxCell id="OZhyUquxvkUG8-gDUHAd-24" value="" style="edgeStyle=orthogonalEdgeStyle;rounded=0;orthogonalLoop=1;jettySize=auto;html=1;" parent="WIyWlLk6GJQsqaUBKTNV-1" source="WIyWlLk6GJQsqaUBKTNV-7" target="OZhyUquxvkUG8-gDUHAd-0" edge="1">
          <mxGeometry relative="1" as="geometry" />
        </mxCell>
        <mxCell id="WIyWlLk6GJQsqaUBKTNV-7" value="Start job" style="rounded=1;whiteSpace=wrap;html=1;fontSize=12;glass=0;strokeWidth=1;shadow=0;fontStyle=1" parent="WIyWlLk6GJQsqaUBKTNV-1" vertex="1">
          <mxGeometry x="190" y="20" width="120" height="40" as="geometry" />
        </mxCell>
        <mxCell id="OZhyUquxvkUG8-gDUHAd-61" value="" style="edgeStyle=orthogonalEdgeStyle;rounded=0;orthogonalLoop=1;jettySize=auto;html=1;" parent="WIyWlLk6GJQsqaUBKTNV-1" source="OZhyUquxvkUG8-gDUHAd-0" target="OZhyUquxvkUG8-gDUHAd-60" edge="1">
          <mxGeometry relative="1" as="geometry" />
        </mxCell>
        <mxCell id="OZhyUquxvkUG8-gDUHAd-0" value="List news sources (servers)" style="rounded=1;whiteSpace=wrap;html=1;fontSize=12;glass=0;strokeWidth=1;shadow=0;fontStyle=1" parent="WIyWlLk6GJQsqaUBKTNV-1" vertex="1">
          <mxGeometry x="420" y="20" width="120" height="40" as="geometry" />
        </mxCell>
        <mxCell id="zZ94O031rmLX_5PtTF2R-1" value="" style="edgeStyle=orthogonalEdgeStyle;rounded=0;orthogonalLoop=1;jettySize=auto;html=1;" parent="WIyWlLk6GJQsqaUBKTNV-1" source="OZhyUquxvkUG8-gDUHAd-4" target="zZ94O031rmLX_5PtTF2R-0" edge="1">
          <mxGeometry relative="1" as="geometry" />
        </mxCell>
        <mxCell id="OZhyUquxvkUG8-gDUHAd-4" value="&lt;b&gt;Prepare POST payload &lt;br&gt;to send to news server&lt;/b&gt;&lt;br&gt;&lt;br&gt;&lt;p align=&quot;center&quot;&gt;The data always contains 2 instance hashes, database UID, iTop &lt;br&gt;environment, (iTop) application name and version, encryption library to &lt;br&gt;use, API version (in order to retrieve a response in this format)&lt;br&gt;&lt;/p&gt;&lt;div align=&quot;center&quot;&gt;News source implementations may add additional data here.&lt;br&gt;&lt;br&gt;Final payload contains operation, API version &lt;br&gt;and a base64 encoded version of the data above.&lt;br&gt;&lt;/div&gt;" style="rounded=1;whiteSpace=wrap;html=1;fontSize=12;glass=0;strokeWidth=1;shadow=0;" parent="WIyWlLk6GJQsqaUBKTNV-1" vertex="1">
          <mxGeometry x="630" y="30" width="430" height="180" as="geometry" />
        </mxCell>
        <mxCell id="OZhyUquxvkUG8-gDUHAd-13" value="" style="edgeStyle=orthogonalEdgeStyle;rounded=0;orthogonalLoop=1;jettySize=auto;html=1;" parent="WIyWlLk6GJQsqaUBKTNV-1" source="OZhyUquxvkUG8-gDUHAd-5" target="OZhyUquxvkUG8-gDUHAd-12" edge="1">
          <mxGeometry relative="1" as="geometry" />
        </mxCell>
        <mxCell id="OZhyUquxvkUG8-gDUHAd-5" value="Request data (news messages)" style="rounded=1;whiteSpace=wrap;html=1;fontSize=12;glass=0;strokeWidth=1;shadow=0;" parent="WIyWlLk6GJQsqaUBKTNV-1" vertex="1">
          <mxGeometry x="360" y="390" width="240" height="60" as="geometry" />
        </mxCell>
        <mxCell id="OZhyUquxvkUG8-gDUHAd-17" value="No" style="edgeStyle=orthogonalEdgeStyle;rounded=0;orthogonalLoop=1;jettySize=auto;html=1;" parent="WIyWlLk6GJQsqaUBKTNV-1" source="OZhyUquxvkUG8-gDUHAd-12" target="OZhyUquxvkUG8-gDUHAd-16" edge="1">
          <mxGeometry relative="1" as="geometry" />
        </mxCell>
        <mxCell id="OZhyUquxvkUG8-gDUHAd-50" value="" style="edgeStyle=orthogonalEdgeStyle;rounded=0;orthogonalLoop=1;jettySize=auto;html=1;" parent="WIyWlLk6GJQsqaUBKTNV-1" source="OZhyUquxvkUG8-gDUHAd-12" target="OZhyUquxvkUG8-gDUHAd-49" edge="1">
          <mxGeometry relative="1" as="geometry" />
        </mxCell>
        <mxCell id="OZhyUquxvkUG8-gDUHAd-12" value="Valid response?" style="rhombus;whiteSpace=wrap;html=1;rounded=1;glass=0;strokeWidth=1;shadow=0;" parent="WIyWlLk6GJQsqaUBKTNV-1" vertex="1">
          <mxGeometry x="405" y="510" width="150" height="150" as="geometry" />
        </mxCell>
        <mxCell id="OZhyUquxvkUG8-gDUHAd-54" value="" style="edgeStyle=orthogonalEdgeStyle;rounded=0;orthogonalLoop=1;jettySize=auto;html=1;" parent="WIyWlLk6GJQsqaUBKTNV-1" source="OZhyUquxvkUG8-gDUHAd-16" target="OZhyUquxvkUG8-gDUHAd-53" edge="1">
          <mxGeometry relative="1" as="geometry" />
        </mxCell>
        <mxCell id="OZhyUquxvkUG8-gDUHAd-16" value="Stop processing&lt;br&gt;this news source" style="whiteSpace=wrap;html=1;rounded=1;glass=0;strokeWidth=1;shadow=0;" parent="WIyWlLk6GJQsqaUBKTNV-1" vertex="1">
          <mxGeometry x="420" y="750" width="120" height="90" as="geometry" />
        </mxCell>
        <mxCell id="OZhyUquxvkUG8-gDUHAd-40" value="" style="edgeStyle=orthogonalEdgeStyle;rounded=0;orthogonalLoop=1;jettySize=auto;html=1;" parent="WIyWlLk6GJQsqaUBKTNV-1" edge="1">
          <mxGeometry relative="1" as="geometry">
            <mxPoint x="1430" y="585" as="sourcePoint" />
            <mxPoint x="1460" y="585" as="targetPoint" />
          </mxGeometry>
        </mxCell>
        <mxCell id="OZhyUquxvkUG8-gDUHAd-33" value="Yes" style="edgeStyle=orthogonalEdgeStyle;rounded=0;orthogonalLoop=1;jettySize=auto;html=1;entryX=0;entryY=0.5;entryDx=0;entryDy=0;" parent="WIyWlLk6GJQsqaUBKTNV-1" source="OZhyUquxvkUG8-gDUHAd-25" target="OZhyUquxvkUG8-gDUHAd-44" edge="1">
          <mxGeometry relative="1" as="geometry">
            <mxPoint x="1180" y="585" as="targetPoint" />
          </mxGeometry>
        </mxCell>
        <mxCell id="OZhyUquxvkUG8-gDUHAd-36" value="No" style="edgeStyle=orthogonalEdgeStyle;rounded=0;orthogonalLoop=1;jettySize=auto;html=1;exitX=0.5;exitY=1;exitDx=0;exitDy=0;entryX=1;entryY=0.25;entryDx=0;entryDy=0;" parent="WIyWlLk6GJQsqaUBKTNV-1" source="OZhyUquxvkUG8-gDUHAd-25" target="OZhyUquxvkUG8-gDUHAd-16" edge="1">
          <mxGeometry relative="1" as="geometry" />
        </mxCell>
        <mxCell id="OZhyUquxvkUG8-gDUHAd-25" value="Valid signature?" style="rhombus;whiteSpace=wrap;html=1;rounded=1;glass=0;strokeWidth=1;shadow=0;" parent="WIyWlLk6GJQsqaUBKTNV-1" vertex="1">
          <mxGeometry x="800" y="510" width="150" height="150" as="geometry" />
        </mxCell>
        <mxCell id="OZhyUquxvkUG8-gDUHAd-56" value="" style="edgeStyle=orthogonalEdgeStyle;rounded=0;orthogonalLoop=1;jettySize=auto;html=1;" parent="WIyWlLk6GJQsqaUBKTNV-1" target="OZhyUquxvkUG8-gDUHAd-44" edge="1">
          <mxGeometry relative="1" as="geometry">
            <mxPoint x="1610" y="585" as="sourcePoint" />
          </mxGeometry>
        </mxCell>
        <mxCell id="OZhyUquxvkUG8-gDUHAd-43" value="Note: the content itself (server response) is not secret in the current implementation. It should just not be tampered with." style="text;html=1;strokeColor=none;fillColor=none;align=center;verticalAlign=middle;whiteSpace=wrap;rounded=0;fontStyle=1" parent="WIyWlLk6GJQsqaUBKTNV-1" vertex="1">
          <mxGeometry x="820" y="460" width="760" height="80" as="geometry" />
        </mxCell>
        <mxCell id="OZhyUquxvkUG8-gDUHAd-68" style="edgeStyle=orthogonalEdgeStyle;rounded=0;orthogonalLoop=1;jettySize=auto;html=1;exitX=0.5;exitY=1;exitDx=0;exitDy=0;entryX=1;entryY=0.5;entryDx=0;entryDy=0;" parent="WIyWlLk6GJQsqaUBKTNV-1" source="OZhyUquxvkUG8-gDUHAd-44" target="OZhyUquxvkUG8-gDUHAd-66" edge="1">
          <mxGeometry relative="1" as="geometry" />
        </mxCell>
        <mxCell id="OZhyUquxvkUG8-gDUHAd-44" value="Process messages&lt;br&gt;( CRUD )" style="whiteSpace=wrap;html=1;rounded=1;glass=0;strokeWidth=1;shadow=0;" parent="WIyWlLk6GJQsqaUBKTNV-1" vertex="1">
          <mxGeometry x="1654" y="555" width="120" height="60" as="geometry" />
        </mxCell>
        <mxCell id="OZhyUquxvkUG8-gDUHAd-51" value="Yes" style="edgeStyle=orthogonalEdgeStyle;rounded=0;orthogonalLoop=1;jettySize=auto;html=1;" parent="WIyWlLk6GJQsqaUBKTNV-1" source="OZhyUquxvkUG8-gDUHAd-49" target="OZhyUquxvkUG8-gDUHAd-25" edge="1">
          <mxGeometry relative="1" as="geometry" />
        </mxCell>
        <mxCell id="OZhyUquxvkUG8-gDUHAd-58" value="No encryption (no signature validation)" style="edgeStyle=orthogonalEdgeStyle;rounded=0;orthogonalLoop=1;jettySize=auto;html=1;exitX=0.5;exitY=0;exitDx=0;exitDy=0;entryX=0.5;entryY=0;entryDx=0;entryDy=0;" parent="WIyWlLk6GJQsqaUBKTNV-1" source="OZhyUquxvkUG8-gDUHAd-49" target="OZhyUquxvkUG8-gDUHAd-44" edge="1">
          <mxGeometry relative="1" as="geometry">
            <Array as="points">
              <mxPoint x="675" y="440" />
              <mxPoint x="1714" y="440" />
            </Array>
          </mxGeometry>
        </mxCell>
        <mxCell id="OZhyUquxvkUG8-gDUHAd-49" value="Signed response?" style="rhombus;whiteSpace=wrap;html=1;rounded=1;glass=0;strokeWidth=1;shadow=0;" parent="WIyWlLk6GJQsqaUBKTNV-1" vertex="1">
          <mxGeometry x="600" y="510" width="150" height="150" as="geometry" />
        </mxCell>
        <mxCell id="OZhyUquxvkUG8-gDUHAd-55" style="edgeStyle=orthogonalEdgeStyle;rounded=0;orthogonalLoop=1;jettySize=auto;html=1;exitX=0.5;exitY=0;exitDx=0;exitDy=0;entryX=0;entryY=0.5;entryDx=0;entryDy=0;" parent="WIyWlLk6GJQsqaUBKTNV-1" source="OZhyUquxvkUG8-gDUHAd-53" target="OZhyUquxvkUG8-gDUHAd-60" edge="1">
          <mxGeometry relative="1" as="geometry">
            <mxPoint x="185" y="120" as="targetPoint" />
          </mxGeometry>
        </mxCell>
        <mxCell id="OZhyUquxvkUG8-gDUHAd-59" value="Next source" style="edgeLabel;html=1;align=center;verticalAlign=middle;resizable=0;points=[];" parent="OZhyUquxvkUG8-gDUHAd-55" vertex="1" connectable="0">
          <mxGeometry x="0.1895" y="-5" relative="1" as="geometry">
            <mxPoint as="offset" />
          </mxGeometry>
        </mxCell>
        <mxCell id="OZhyUquxvkUG8-gDUHAd-65" value="No" style="edgeStyle=orthogonalEdgeStyle;rounded=0;orthogonalLoop=1;jettySize=auto;html=1;" parent="WIyWlLk6GJQsqaUBKTNV-1" source="OZhyUquxvkUG8-gDUHAd-53" target="OZhyUquxvkUG8-gDUHAd-64" edge="1">
          <mxGeometry relative="1" as="geometry" />
        </mxCell>
        <mxCell id="OZhyUquxvkUG8-gDUHAd-53" value="More sources?" style="rhombus;whiteSpace=wrap;html=1;rounded=1;glass=0;strokeWidth=1;shadow=0;" parent="WIyWlLk6GJQsqaUBKTNV-1" vertex="1">
          <mxGeometry x="110" y="720" width="150" height="150" as="geometry" />
        </mxCell>
        <mxCell id="OZhyUquxvkUG8-gDUHAd-63" value="" style="edgeStyle=orthogonalEdgeStyle;rounded=0;orthogonalLoop=1;jettySize=auto;html=1;" parent="WIyWlLk6GJQsqaUBKTNV-1" source="OZhyUquxvkUG8-gDUHAd-60" target="OZhyUquxvkUG8-gDUHAd-4" edge="1">
          <mxGeometry relative="1" as="geometry" />
        </mxCell>
        <mxCell id="OZhyUquxvkUG8-gDUHAd-60" value="Process source" style="whiteSpace=wrap;html=1;rounded=1;glass=0;strokeWidth=1;shadow=0;fontStyle=1;" parent="WIyWlLk6GJQsqaUBKTNV-1" vertex="1">
          <mxGeometry x="420" y="90" width="120" height="60" as="geometry" />
        </mxCell>
        <mxCell id="OZhyUquxvkUG8-gDUHAd-64" value="End job" style="whiteSpace=wrap;html=1;rounded=1;glass=0;strokeWidth=1;shadow=0;" parent="WIyWlLk6GJQsqaUBKTNV-1" vertex="1">
          <mxGeometry x="125" y="950" width="120" height="60" as="geometry" />
        </mxCell>
        <mxCell id="ltMHRH8uOwkN6Cz94e2u-8" style="edgeStyle=orthogonalEdgeStyle;rounded=0;orthogonalLoop=1;jettySize=auto;html=1;exitX=0;exitY=0.5;exitDx=0;exitDy=0;entryX=1;entryY=0.5;entryDx=0;entryDy=0;" parent="WIyWlLk6GJQsqaUBKTNV-1" source="OZhyUquxvkUG8-gDUHAd-66" target="ltMHRH8uOwkN6Cz94e2u-6" edge="1">
          <mxGeometry relative="1" as="geometry" />
        </mxCell>
        <mxCell id="OZhyUquxvkUG8-gDUHAd-66" value="Post additional data to news server.&lt;br&gt;&lt;br&gt;By default: &lt;b&gt;report_read_statistics &lt;/b&gt;. &lt;br&gt;This includes: IDs of the target users (= reason this is a second request), and the user ID + read data of each user who &lt;u&gt;&lt;b&gt;marked &lt;/b&gt;&lt;/u&gt;a message as read." style="whiteSpace=wrap;html=1;rounded=1;glass=0;strokeWidth=1;shadow=0;" parent="WIyWlLk6GJQsqaUBKTNV-1" vertex="1">
          <mxGeometry x="960" y="860" width="340" height="210" as="geometry" />
        </mxCell>
        <mxCell id="zZ94O031rmLX_5PtTF2R-2" value="No" style="edgeStyle=orthogonalEdgeStyle;rounded=0;orthogonalLoop=1;jettySize=auto;html=1;exitX=0.5;exitY=1;exitDx=0;exitDy=0;entryX=0.5;entryY=0;entryDx=0;entryDy=0;" parent="WIyWlLk6GJQsqaUBKTNV-1" source="zZ94O031rmLX_5PtTF2R-0" target="OZhyUquxvkUG8-gDUHAd-5" edge="1">
          <mxGeometry relative="1" as="geometry" />
        </mxCell>
        <mxCell id="zZ94O031rmLX_5PtTF2R-5" value="Yes" style="edgeStyle=orthogonalEdgeStyle;rounded=0;orthogonalLoop=1;jettySize=auto;html=1;" parent="WIyWlLk6GJQsqaUBKTNV-1" source="zZ94O031rmLX_5PtTF2R-0" target="zZ94O031rmLX_5PtTF2R-4" edge="1">
          <mxGeometry relative="1" as="geometry" />
        </mxCell>
        <mxCell id="zZ94O031rmLX_5PtTF2R-0" value="Encryption?" style="rhombus;whiteSpace=wrap;html=1;rounded=1;glass=0;strokeWidth=1;shadow=0;" parent="WIyWlLk6GJQsqaUBKTNV-1" vertex="1">
          <mxGeometry x="1160" y="45" width="150" height="150" as="geometry" />
        </mxCell>
        <mxCell id="zZ94O031rmLX_5PtTF2R-6" style="edgeStyle=orthogonalEdgeStyle;rounded=0;orthogonalLoop=1;jettySize=auto;html=1;exitX=0.5;exitY=1;exitDx=0;exitDy=0;entryX=1;entryY=0.25;entryDx=0;entryDy=0;" parent="WIyWlLk6GJQsqaUBKTNV-1" source="zZ94O031rmLX_5PtTF2R-4" target="OZhyUquxvkUG8-gDUHAd-5" edge="1">
          <mxGeometry relative="1" as="geometry" />
        </mxCell>
        <mxCell id="zZ94O031rmLX_5PtTF2R-4" value="Encrypt payload &lt;br&gt;( cryptobox - seal )" style="whiteSpace=wrap;html=1;rounded=1;glass=0;strokeWidth=1;shadow=0;" parent="WIyWlLk6GJQsqaUBKTNV-1" vertex="1">
          <mxGeometry x="1405" y="90" width="120" height="60" as="geometry" />
        </mxCell>
        <mxCell id="ltMHRH8uOwkN6Cz94e2u-9" value="Yes" style="edgeStyle=orthogonalEdgeStyle;rounded=0;orthogonalLoop=1;jettySize=auto;html=1;exitX=0;exitY=0.5;exitDx=0;exitDy=0;entryX=1;entryY=0.5;entryDx=0;entryDy=0;" parent="WIyWlLk6GJQsqaUBKTNV-1" source="ltMHRH8uOwkN6Cz94e2u-6" target="ltMHRH8uOwkN6Cz94e2u-7" edge="1">
          <mxGeometry relative="1" as="geometry" />
        </mxCell>
        <mxCell id="ltMHRH8uOwkN6Cz94e2u-11" value="No" style="edgeStyle=orthogonalEdgeStyle;rounded=0;orthogonalLoop=1;jettySize=auto;html=1;exitX=0.5;exitY=1;exitDx=0;exitDy=0;entryX=0.5;entryY=1;entryDx=0;entryDy=0;" parent="WIyWlLk6GJQsqaUBKTNV-1" source="ltMHRH8uOwkN6Cz94e2u-6" target="OZhyUquxvkUG8-gDUHAd-16" edge="1">
          <mxGeometry relative="1" as="geometry" />
        </mxCell>
        <mxCell id="ltMHRH8uOwkN6Cz94e2u-6" value="Encryption?" style="rhombus;whiteSpace=wrap;html=1;rounded=1;glass=0;strokeWidth=1;shadow=0;" parent="WIyWlLk6GJQsqaUBKTNV-1" vertex="1">
          <mxGeometry x="730" y="890" width="150" height="150" as="geometry" />
        </mxCell>
        <mxCell id="ltMHRH8uOwkN6Cz94e2u-10" style="edgeStyle=orthogonalEdgeStyle;rounded=0;orthogonalLoop=1;jettySize=auto;html=1;exitX=0;exitY=0.5;exitDx=0;exitDy=0;entryX=0.75;entryY=1;entryDx=0;entryDy=0;" parent="WIyWlLk6GJQsqaUBKTNV-1" source="ltMHRH8uOwkN6Cz94e2u-7" target="OZhyUquxvkUG8-gDUHAd-16" edge="1">
          <mxGeometry relative="1" as="geometry" />
        </mxCell>
        <mxCell id="ltMHRH8uOwkN6Cz94e2u-7" value="Encrypt payload &lt;br&gt;( cryptobox - seal )" style="whiteSpace=wrap;html=1;rounded=1;glass=0;strokeWidth=1;shadow=0;" parent="WIyWlLk6GJQsqaUBKTNV-1" vertex="1">
          <mxGeometry x="555" y="935" width="120" height="60" as="geometry" />
        </mxCell>
      </root>
    </mxGraphModel>
  </diagram>
  <diagram name="MITM" id="XMjYQ9UTWbyeHxBUCoi9">
    <mxGraphModel dx="1562" dy="1037" grid="1" gridSize="10" guides="1" tooltips="1" connect="1" arrows="1" fold="1" page="1" pageScale="1" pageWidth="827" pageHeight="1169" math="0" shadow="0">
      <root>
        <mxCell id="C4-Ehp32IlHd3BaQ6FqO-0" />
        <mxCell id="C4-Ehp32IlHd3BaQ6FqO-1" parent="C4-Ehp32IlHd3BaQ6FqO-0" />
        <mxCell id="C4-Ehp32IlHd3BaQ6FqO-2" value="" style="edgeStyle=orthogonalEdgeStyle;rounded=0;orthogonalLoop=1;jettySize=auto;html=1;" parent="C4-Ehp32IlHd3BaQ6FqO-1" source="C4-Ehp32IlHd3BaQ6FqO-3" target="C4-Ehp32IlHd3BaQ6FqO-5" edge="1">
          <mxGeometry relative="1" as="geometry" />
        </mxCell>
        <mxCell id="C4-Ehp32IlHd3BaQ6FqO-3" value="&lt;div&gt;iTop back-office&amp;nbsp;&lt;br&gt;page is rendered&lt;/div&gt;" style="rounded=1;whiteSpace=wrap;html=1;fontSize=12;glass=0;strokeWidth=1;shadow=0;" parent="C4-Ehp32IlHd3BaQ6FqO-1" vertex="1">
          <mxGeometry x="20" y="20" width="120" height="40" as="geometry" />
        </mxCell>
        <mxCell id="C4-Ehp32IlHd3BaQ6FqO-4" value="" style="edgeStyle=orthogonalEdgeStyle;rounded=0;orthogonalLoop=1;jettySize=auto;html=1;" parent="C4-Ehp32IlHd3BaQ6FqO-1" source="C4-Ehp32IlHd3BaQ6FqO-5" target="C4-Ehp32IlHd3BaQ6FqO-7" edge="1">
          <mxGeometry relative="1" as="geometry" />
        </mxCell>
        <mxCell id="C4-Ehp32IlHd3BaQ6FqO-5" value="Start job" style="rounded=1;whiteSpace=wrap;html=1;fontSize=12;glass=0;strokeWidth=1;shadow=0;fontStyle=1" parent="C4-Ehp32IlHd3BaQ6FqO-1" vertex="1">
          <mxGeometry x="190" y="20" width="120" height="40" as="geometry" />
        </mxCell>
        <mxCell id="C4-Ehp32IlHd3BaQ6FqO-6" value="" style="edgeStyle=orthogonalEdgeStyle;rounded=0;orthogonalLoop=1;jettySize=auto;html=1;" parent="C4-Ehp32IlHd3BaQ6FqO-1" source="C4-Ehp32IlHd3BaQ6FqO-7" target="C4-Ehp32IlHd3BaQ6FqO-39" edge="1">
          <mxGeometry relative="1" as="geometry" />
        </mxCell>
        <mxCell id="C4-Ehp32IlHd3BaQ6FqO-7" value="List news sources (servers)" style="rounded=1;whiteSpace=wrap;html=1;fontSize=12;glass=0;strokeWidth=1;shadow=0;fontStyle=1" parent="C4-Ehp32IlHd3BaQ6FqO-1" vertex="1">
          <mxGeometry x="420" y="20" width="120" height="40" as="geometry" />
        </mxCell>
        <mxCell id="C4-Ehp32IlHd3BaQ6FqO-8" value="" style="edgeStyle=orthogonalEdgeStyle;rounded=0;orthogonalLoop=1;jettySize=auto;html=1;" parent="C4-Ehp32IlHd3BaQ6FqO-1" source="C4-Ehp32IlHd3BaQ6FqO-9" target="C4-Ehp32IlHd3BaQ6FqO-45" edge="1">
          <mxGeometry relative="1" as="geometry" />
        </mxCell>
        <mxCell id="C4-Ehp32IlHd3BaQ6FqO-9" value="&lt;b&gt;Prepare POST payload &lt;br&gt;to send to news server&lt;/b&gt;&lt;br&gt;&lt;br&gt;&lt;p align=&quot;center&quot;&gt;The data always contains 2 instance hashes, database UID, iTop &lt;br&gt;environment, (iTop) application name and version, encryption library to &lt;br&gt;use, API version (in order to retrieve a response in this format)&lt;br&gt;&lt;/p&gt;&lt;div align=&quot;center&quot;&gt;News source implementations may add additional data here.&lt;br&gt;&lt;br&gt;Final payload contains operation, API version &lt;br&gt;and a base64 encoded version of the data above.&lt;br&gt;&lt;/div&gt;" style="rounded=1;whiteSpace=wrap;html=1;fontSize=12;glass=0;strokeWidth=1;shadow=0;" parent="C4-Ehp32IlHd3BaQ6FqO-1" vertex="1">
          <mxGeometry x="630" y="30" width="430" height="180" as="geometry" />
        </mxCell>
        <mxCell id="C4-Ehp32IlHd3BaQ6FqO-10" value="" style="edgeStyle=orthogonalEdgeStyle;rounded=0;orthogonalLoop=1;jettySize=auto;html=1;exitX=0;exitY=0.5;exitDx=0;exitDy=0;" parent="C4-Ehp32IlHd3BaQ6FqO-1" source="lK_6k5JVga7S2xhUOpL3-2" target="C4-Ehp32IlHd3BaQ6FqO-14" edge="1">
          <mxGeometry relative="1" as="geometry">
            <mxPoint x="650" y="340" as="sourcePoint" />
          </mxGeometry>
        </mxCell>
        <mxCell id="lK_6k5JVga7S2xhUOpL3-1" value="" style="edgeStyle=orthogonalEdgeStyle;rounded=0;orthogonalLoop=1;jettySize=auto;html=1;" parent="C4-Ehp32IlHd3BaQ6FqO-1" source="C4-Ehp32IlHd3BaQ6FqO-11" target="lK_6k5JVga7S2xhUOpL3-0" edge="1">
          <mxGeometry relative="1" as="geometry" />
        </mxCell>
        <mxCell id="C4-Ehp32IlHd3BaQ6FqO-11" value="Add JSONP call in back office&lt;br&gt;( so user calls news source endpoint )" style="rounded=1;whiteSpace=wrap;html=1;fontSize=12;glass=0;strokeWidth=1;shadow=0;" parent="C4-Ehp32IlHd3BaQ6FqO-1" vertex="1">
          <mxGeometry x="1115" y="310" width="240" height="60" as="geometry" />
        </mxCell>
        <mxCell id="C4-Ehp32IlHd3BaQ6FqO-12" value="No" style="edgeStyle=orthogonalEdgeStyle;rounded=0;orthogonalLoop=1;jettySize=auto;html=1;" parent="C4-Ehp32IlHd3BaQ6FqO-1" source="C4-Ehp32IlHd3BaQ6FqO-14" target="C4-Ehp32IlHd3BaQ6FqO-16" edge="1">
          <mxGeometry relative="1" as="geometry" />
        </mxCell>
        <mxCell id="C4-Ehp32IlHd3BaQ6FqO-13" value="" style="edgeStyle=orthogonalEdgeStyle;rounded=0;orthogonalLoop=1;jettySize=auto;html=1;" parent="C4-Ehp32IlHd3BaQ6FqO-1" source="C4-Ehp32IlHd3BaQ6FqO-14" target="C4-Ehp32IlHd3BaQ6FqO-33" edge="1">
          <mxGeometry relative="1" as="geometry" />
        </mxCell>
        <mxCell id="C4-Ehp32IlHd3BaQ6FqO-14" value="Valid response?" style="rhombus;whiteSpace=wrap;html=1;rounded=1;glass=0;strokeWidth=1;shadow=0;" parent="C4-Ehp32IlHd3BaQ6FqO-1" vertex="1">
          <mxGeometry x="405" y="510" width="150" height="150" as="geometry" />
        </mxCell>
        <mxCell id="C4-Ehp32IlHd3BaQ6FqO-15" value="" style="edgeStyle=orthogonalEdgeStyle;rounded=0;orthogonalLoop=1;jettySize=auto;html=1;" parent="C4-Ehp32IlHd3BaQ6FqO-1" source="C4-Ehp32IlHd3BaQ6FqO-16" target="C4-Ehp32IlHd3BaQ6FqO-37" edge="1">
          <mxGeometry relative="1" as="geometry" />
        </mxCell>
        <mxCell id="C4-Ehp32IlHd3BaQ6FqO-16" value="Stop processing&lt;br&gt;this news source" style="whiteSpace=wrap;html=1;rounded=1;glass=0;strokeWidth=1;shadow=0;" parent="C4-Ehp32IlHd3BaQ6FqO-1" vertex="1">
          <mxGeometry x="420" y="750" width="120" height="90" as="geometry" />
        </mxCell>
        <mxCell id="C4-Ehp32IlHd3BaQ6FqO-19" value="Yes" style="edgeStyle=orthogonalEdgeStyle;rounded=0;orthogonalLoop=1;jettySize=auto;html=1;entryX=0;entryY=0.5;entryDx=0;entryDy=0;" parent="C4-Ehp32IlHd3BaQ6FqO-1" source="C4-Ehp32IlHd3BaQ6FqO-21" target="C4-Ehp32IlHd3BaQ6FqO-30" edge="1">
          <mxGeometry relative="1" as="geometry">
            <mxPoint x="990" y="585" as="targetPoint" />
          </mxGeometry>
        </mxCell>
        <mxCell id="C4-Ehp32IlHd3BaQ6FqO-20" value="No" style="edgeStyle=orthogonalEdgeStyle;rounded=0;orthogonalLoop=1;jettySize=auto;html=1;exitX=0.5;exitY=1;exitDx=0;exitDy=0;entryX=1;entryY=0.25;entryDx=0;entryDy=0;" parent="C4-Ehp32IlHd3BaQ6FqO-1" source="C4-Ehp32IlHd3BaQ6FqO-21" target="C4-Ehp32IlHd3BaQ6FqO-16" edge="1">
          <mxGeometry relative="1" as="geometry" />
        </mxCell>
        <mxCell id="C4-Ehp32IlHd3BaQ6FqO-21" value="Valid signature?" style="rhombus;whiteSpace=wrap;html=1;rounded=1;glass=0;strokeWidth=1;shadow=0;" parent="C4-Ehp32IlHd3BaQ6FqO-1" vertex="1">
          <mxGeometry x="800" y="510" width="150" height="150" as="geometry" />
        </mxCell>
        <mxCell id="C4-Ehp32IlHd3BaQ6FqO-28" value="Note: the content itself (server response) is not secret in the current implementation. It should just not be tampered with." style="text;html=1;strokeColor=none;fillColor=none;align=center;verticalAlign=middle;whiteSpace=wrap;rounded=0;fontStyle=1" parent="C4-Ehp32IlHd3BaQ6FqO-1" vertex="1">
          <mxGeometry x="820" y="460" width="760" height="80" as="geometry" />
        </mxCell>
        <mxCell id="C4-Ehp32IlHd3BaQ6FqO-29" style="edgeStyle=orthogonalEdgeStyle;rounded=0;orthogonalLoop=1;jettySize=auto;html=1;exitX=0.5;exitY=1;exitDx=0;exitDy=0;entryX=1;entryY=0.5;entryDx=0;entryDy=0;" parent="C4-Ehp32IlHd3BaQ6FqO-1" source="C4-Ehp32IlHd3BaQ6FqO-30" target="C4-Ehp32IlHd3BaQ6FqO-42" edge="1">
          <mxGeometry relative="1" as="geometry" />
        </mxCell>
        <mxCell id="C4-Ehp32IlHd3BaQ6FqO-30" value="Process messages&lt;br&gt;( CRUD )" style="whiteSpace=wrap;html=1;rounded=1;glass=0;strokeWidth=1;shadow=0;" parent="C4-Ehp32IlHd3BaQ6FqO-1" vertex="1">
          <mxGeometry x="1654" y="555" width="120" height="60" as="geometry" />
        </mxCell>
        <mxCell id="C4-Ehp32IlHd3BaQ6FqO-31" value="Yes" style="edgeStyle=orthogonalEdgeStyle;rounded=0;orthogonalLoop=1;jettySize=auto;html=1;" parent="C4-Ehp32IlHd3BaQ6FqO-1" source="C4-Ehp32IlHd3BaQ6FqO-33" target="C4-Ehp32IlHd3BaQ6FqO-21" edge="1">
          <mxGeometry relative="1" as="geometry" />
        </mxCell>
        <mxCell id="C4-Ehp32IlHd3BaQ6FqO-32" value="No encryption (no signature validation)" style="edgeStyle=orthogonalEdgeStyle;rounded=0;orthogonalLoop=1;jettySize=auto;html=1;exitX=0.5;exitY=0;exitDx=0;exitDy=0;entryX=0.5;entryY=0;entryDx=0;entryDy=0;" parent="C4-Ehp32IlHd3BaQ6FqO-1" source="C4-Ehp32IlHd3BaQ6FqO-33" target="C4-Ehp32IlHd3BaQ6FqO-30" edge="1">
          <mxGeometry relative="1" as="geometry">
            <Array as="points">
              <mxPoint x="675" y="440" />
              <mxPoint x="1714" y="440" />
            </Array>
          </mxGeometry>
        </mxCell>
        <mxCell id="C4-Ehp32IlHd3BaQ6FqO-33" value="Encryption?" style="rhombus;whiteSpace=wrap;html=1;rounded=1;glass=0;strokeWidth=1;shadow=0;" parent="C4-Ehp32IlHd3BaQ6FqO-1" vertex="1">
          <mxGeometry x="600" y="510" width="150" height="150" as="geometry" />
        </mxCell>
        <mxCell id="C4-Ehp32IlHd3BaQ6FqO-34" style="edgeStyle=orthogonalEdgeStyle;rounded=0;orthogonalLoop=1;jettySize=auto;html=1;exitX=0.5;exitY=0;exitDx=0;exitDy=0;entryX=0;entryY=0.5;entryDx=0;entryDy=0;" parent="C4-Ehp32IlHd3BaQ6FqO-1" source="C4-Ehp32IlHd3BaQ6FqO-37" target="C4-Ehp32IlHd3BaQ6FqO-39" edge="1">
          <mxGeometry relative="1" as="geometry">
            <mxPoint x="185" y="120" as="targetPoint" />
          </mxGeometry>
        </mxCell>
        <mxCell id="C4-Ehp32IlHd3BaQ6FqO-35" value="Next source" style="edgeLabel;html=1;align=center;verticalAlign=middle;resizable=0;points=[];" parent="C4-Ehp32IlHd3BaQ6FqO-34" vertex="1" connectable="0">
          <mxGeometry x="0.1895" y="-5" relative="1" as="geometry">
            <mxPoint as="offset" />
          </mxGeometry>
        </mxCell>
        <mxCell id="C4-Ehp32IlHd3BaQ6FqO-36" value="No" style="edgeStyle=orthogonalEdgeStyle;rounded=0;orthogonalLoop=1;jettySize=auto;html=1;" parent="C4-Ehp32IlHd3BaQ6FqO-1" source="C4-Ehp32IlHd3BaQ6FqO-37" target="C4-Ehp32IlHd3BaQ6FqO-40" edge="1">
          <mxGeometry relative="1" as="geometry" />
        </mxCell>
        <mxCell id="C4-Ehp32IlHd3BaQ6FqO-37" value="More sources?" style="rhombus;whiteSpace=wrap;html=1;rounded=1;glass=0;strokeWidth=1;shadow=0;" parent="C4-Ehp32IlHd3BaQ6FqO-1" vertex="1">
          <mxGeometry x="110" y="720" width="150" height="150" as="geometry" />
        </mxCell>
        <mxCell id="C4-Ehp32IlHd3BaQ6FqO-38" value="" style="edgeStyle=orthogonalEdgeStyle;rounded=0;orthogonalLoop=1;jettySize=auto;html=1;" parent="C4-Ehp32IlHd3BaQ6FqO-1" source="C4-Ehp32IlHd3BaQ6FqO-39" target="C4-Ehp32IlHd3BaQ6FqO-9" edge="1">
          <mxGeometry relative="1" as="geometry" />
        </mxCell>
        <mxCell id="C4-Ehp32IlHd3BaQ6FqO-39" value="Process source" style="whiteSpace=wrap;html=1;rounded=1;glass=0;strokeWidth=1;shadow=0;fontStyle=1;" parent="C4-Ehp32IlHd3BaQ6FqO-1" vertex="1">
          <mxGeometry x="420" y="90" width="120" height="60" as="geometry" />
        </mxCell>
        <mxCell id="C4-Ehp32IlHd3BaQ6FqO-40" value="End job" style="whiteSpace=wrap;html=1;rounded=1;glass=0;strokeWidth=1;shadow=0;" parent="C4-Ehp32IlHd3BaQ6FqO-1" vertex="1">
          <mxGeometry x="125" y="950" width="120" height="60" as="geometry" />
        </mxCell>
        <mxCell id="NtTI-o3APbuarfBYJYlK-3" style="edgeStyle=orthogonalEdgeStyle;rounded=0;orthogonalLoop=1;jettySize=auto;html=1;exitX=0;exitY=0.5;exitDx=0;exitDy=0;entryX=1;entryY=0.5;entryDx=0;entryDy=0;" parent="C4-Ehp32IlHd3BaQ6FqO-1" source="C4-Ehp32IlHd3BaQ6FqO-42" target="NtTI-o3APbuarfBYJYlK-1" edge="1">
          <mxGeometry relative="1" as="geometry" />
        </mxCell>
        <mxCell id="C4-Ehp32IlHd3BaQ6FqO-42" value="Post additional data to news server.&lt;br&gt;&lt;br&gt;By default: &lt;b&gt;report_read_statistics &lt;/b&gt;. &lt;br&gt;This includes: IDs of the target users (= reason this is a second request), and the user ID + read data of each user who &lt;u&gt;&lt;b&gt;marked &lt;/b&gt;&lt;/u&gt;a message as read." style="whiteSpace=wrap;html=1;rounded=1;glass=0;strokeWidth=1;shadow=0;" parent="C4-Ehp32IlHd3BaQ6FqO-1" vertex="1">
          <mxGeometry x="960" y="860" width="340" height="210" as="geometry" />
        </mxCell>
        <mxCell id="C4-Ehp32IlHd3BaQ6FqO-43" value="No" style="edgeStyle=orthogonalEdgeStyle;rounded=0;orthogonalLoop=1;jettySize=auto;html=1;exitX=0.5;exitY=1;exitDx=0;exitDy=0;entryX=0.5;entryY=0;entryDx=0;entryDy=0;" parent="C4-Ehp32IlHd3BaQ6FqO-1" source="C4-Ehp32IlHd3BaQ6FqO-45" target="C4-Ehp32IlHd3BaQ6FqO-11" edge="1">
          <mxGeometry relative="1" as="geometry" />
        </mxCell>
        <mxCell id="C4-Ehp32IlHd3BaQ6FqO-44" value="Yes" style="edgeStyle=orthogonalEdgeStyle;rounded=0;orthogonalLoop=1;jettySize=auto;html=1;" parent="C4-Ehp32IlHd3BaQ6FqO-1" source="C4-Ehp32IlHd3BaQ6FqO-45" target="C4-Ehp32IlHd3BaQ6FqO-47" edge="1">
          <mxGeometry relative="1" as="geometry" />
        </mxCell>
        <mxCell id="C4-Ehp32IlHd3BaQ6FqO-45" value="Encryption?" style="rhombus;whiteSpace=wrap;html=1;rounded=1;glass=0;strokeWidth=1;shadow=0;" parent="C4-Ehp32IlHd3BaQ6FqO-1" vertex="1">
          <mxGeometry x="1160" y="45" width="150" height="150" as="geometry" />
        </mxCell>
        <mxCell id="C4-Ehp32IlHd3BaQ6FqO-46" style="edgeStyle=orthogonalEdgeStyle;rounded=0;orthogonalLoop=1;jettySize=auto;html=1;exitX=0.5;exitY=1;exitDx=0;exitDy=0;entryX=1;entryY=0.5;entryDx=0;entryDy=0;" parent="C4-Ehp32IlHd3BaQ6FqO-1" source="C4-Ehp32IlHd3BaQ6FqO-47" target="C4-Ehp32IlHd3BaQ6FqO-11" edge="1">
          <mxGeometry relative="1" as="geometry">
            <mxPoint x="1360" y="340" as="targetPoint" />
          </mxGeometry>
        </mxCell>
        <mxCell id="C4-Ehp32IlHd3BaQ6FqO-47" value="Encrypt payload &lt;br&gt;( cryptobox - seal )" style="whiteSpace=wrap;html=1;rounded=1;glass=0;strokeWidth=1;shadow=0;" parent="C4-Ehp32IlHd3BaQ6FqO-1" vertex="1">
          <mxGeometry x="1405" y="90" width="120" height="60" as="geometry" />
        </mxCell>
        <mxCell id="lK_6k5JVga7S2xhUOpL3-3" value="" style="edgeStyle=orthogonalEdgeStyle;rounded=0;orthogonalLoop=1;jettySize=auto;html=1;" parent="C4-Ehp32IlHd3BaQ6FqO-1" source="lK_6k5JVga7S2xhUOpL3-0" target="lK_6k5JVga7S2xhUOpL3-2" edge="1">
          <mxGeometry relative="1" as="geometry" />
        </mxCell>
        <mxCell id="lK_6k5JVga7S2xhUOpL3-0" value="Retrieve JSONP response&amp;nbsp;&lt;br&gt;from news server" style="whiteSpace=wrap;html=1;rounded=1;glass=0;strokeWidth=1;shadow=0;" parent="C4-Ehp32IlHd3BaQ6FqO-1" vertex="1">
          <mxGeometry x="800" y="310" width="175" height="60" as="geometry" />
        </mxCell>
        <mxCell id="lK_6k5JVga7S2xhUOpL3-2" value="Send data to user&#39;s iTop instance&lt;br&gt;( user sends data to iTop environment )" style="whiteSpace=wrap;html=1;rounded=1;glass=0;strokeWidth=1;shadow=0;" parent="C4-Ehp32IlHd3BaQ6FqO-1" vertex="1">
          <mxGeometry x="510" y="310" width="230" height="60" as="geometry" />
        </mxCell>
        <mxCell id="NtTI-o3APbuarfBYJYlK-0" value="Yes" style="edgeStyle=orthogonalEdgeStyle;rounded=0;orthogonalLoop=1;jettySize=auto;html=1;exitX=0;exitY=0.5;exitDx=0;exitDy=0;entryX=1;entryY=0.5;entryDx=0;entryDy=0;" parent="C4-Ehp32IlHd3BaQ6FqO-1" source="NtTI-o3APbuarfBYJYlK-1" target="NtTI-o3APbuarfBYJYlK-2" edge="1">
          <mxGeometry relative="1" as="geometry" />
        </mxCell>
        <mxCell id="NtTI-o3APbuarfBYJYlK-5" value="No" style="edgeStyle=orthogonalEdgeStyle;rounded=0;orthogonalLoop=1;jettySize=auto;html=1;exitX=0.5;exitY=1;exitDx=0;exitDy=0;entryX=0.25;entryY=1;entryDx=0;entryDy=0;" parent="C4-Ehp32IlHd3BaQ6FqO-1" source="NtTI-o3APbuarfBYJYlK-1" target="C4-Ehp32IlHd3BaQ6FqO-16" edge="1">
          <mxGeometry relative="1" as="geometry" />
        </mxCell>
        <mxCell id="NtTI-o3APbuarfBYJYlK-1" value="Encryption?" style="rhombus;whiteSpace=wrap;html=1;rounded=1;glass=0;strokeWidth=1;shadow=0;" parent="C4-Ehp32IlHd3BaQ6FqO-1" vertex="1">
          <mxGeometry x="730" y="890" width="150" height="150" as="geometry" />
        </mxCell>
        <mxCell id="NtTI-o3APbuarfBYJYlK-4" style="edgeStyle=orthogonalEdgeStyle;rounded=0;orthogonalLoop=1;jettySize=auto;html=1;exitX=0;exitY=0.5;exitDx=0;exitDy=0;entryX=0.75;entryY=1;entryDx=0;entryDy=0;" parent="C4-Ehp32IlHd3BaQ6FqO-1" source="NtTI-o3APbuarfBYJYlK-2" target="C4-Ehp32IlHd3BaQ6FqO-16" edge="1">
          <mxGeometry relative="1" as="geometry" />
        </mxCell>
        <mxCell id="NtTI-o3APbuarfBYJYlK-2" value="Encrypt payload &lt;br&gt;( cryptobox - seal )" style="whiteSpace=wrap;html=1;rounded=1;glass=0;strokeWidth=1;shadow=0;" parent="C4-Ehp32IlHd3BaQ6FqO-1" vertex="1">
          <mxGeometry x="555" y="935" width="120" height="60" as="geometry" />
        </mxCell>
      </root>
    </mxGraphModel>
  </diagram>
</mxfile>
